<mxfile host="app.diagrams.net" modified="2024-03-21T18:37:36.023Z" agent="Mozilla/5.0 (Windows NT 10.0; Win64; x64) AppleWebKit/537.36 (KHTML, like Gecko) Chrome/121.0.0.0 Safari/537.36 OPR/107.0.0.0" etag="x4p8Mbc_puNLrCG0Rj32" version="24.0.7" type="device">
  <diagram name="Trang-1" id="Du2nwu8zhtqmSsIbPRmP">
    <mxGraphModel dx="1152" dy="34" grid="0" gridSize="10" guides="1" tooltips="1" connect="1" arrows="1" fold="1" page="0" pageScale="1" pageWidth="827" pageHeight="1169" math="0" shadow="0">
      <root>
        <mxCell id="0" />
        <mxCell id="1" parent="0" />
        <mxCell id="YayqZshwJNJJs2qmhWY_-1" value="&lt;font style=&quot;font-size: 14px;&quot;&gt;AB: 1.64&amp;nbsp;&lt;/font&gt;" style="rounded=0;whiteSpace=wrap;html=1;fontFamily=Times New Roman;" vertex="1" parent="1">
          <mxGeometry x="920" y="1440" width="70" height="30" as="geometry" />
        </mxCell>
        <mxCell id="YayqZshwJNJJs2qmhWY_-2" value="" style="shape=table;startSize=0;container=1;collapsible=0;childLayout=tableLayout;fontSize=14;fontFamily=Times New Roman;" vertex="1" parent="1">
          <mxGeometry x="975" y="1491" width="283.54998779296875" height="160" as="geometry" />
        </mxCell>
        <mxCell id="YayqZshwJNJJs2qmhWY_-3" value="" style="shape=tableRow;horizontal=0;startSize=0;swimlaneHead=0;swimlaneBody=0;strokeColor=inherit;top=0;left=0;bottom=0;right=0;collapsible=0;dropTarget=0;fillColor=none;points=[[0,0.5],[1,0.5]];portConstraint=eastwest;fontSize=16;" vertex="1" parent="YayqZshwJNJJs2qmhWY_-2">
          <mxGeometry width="283.54998779296875" height="40" as="geometry" />
        </mxCell>
        <mxCell id="YayqZshwJNJJs2qmhWY_-4" value="TID" style="shape=partialRectangle;html=1;whiteSpace=wrap;connectable=0;strokeColor=inherit;overflow=hidden;fillColor=none;top=0;left=0;bottom=0;right=0;pointerEvents=1;fontSize=14;fontFamily=Times New Roman;" vertex="1" parent="YayqZshwJNJJs2qmhWY_-3">
          <mxGeometry width="60" height="40" as="geometry">
            <mxRectangle width="60" height="40" as="alternateBounds" />
          </mxGeometry>
        </mxCell>
        <mxCell id="YayqZshwJNJJs2qmhWY_-5" value="Prob" style="shape=partialRectangle;html=1;whiteSpace=wrap;connectable=0;strokeColor=inherit;overflow=hidden;fillColor=none;top=0;left=0;bottom=0;right=0;pointerEvents=1;fontSize=14;fontFamily=Times New Roman;" vertex="1" parent="YayqZshwJNJJs2qmhWY_-3">
          <mxGeometry x="60" width="98" height="40" as="geometry">
            <mxRectangle width="98" height="40" as="alternateBounds" />
          </mxGeometry>
        </mxCell>
        <mxCell id="YayqZshwJNJJs2qmhWY_-6" value="Uti" style="shape=partialRectangle;html=1;whiteSpace=wrap;connectable=0;strokeColor=inherit;overflow=hidden;fillColor=none;top=0;left=0;bottom=0;right=0;pointerEvents=1;fontSize=14;fontFamily=Times New Roman;" vertex="1" parent="YayqZshwJNJJs2qmhWY_-3">
          <mxGeometry x="158" width="63" height="40" as="geometry">
            <mxRectangle width="63" height="40" as="alternateBounds" />
          </mxGeometry>
        </mxCell>
        <mxCell id="YayqZshwJNJJs2qmhWY_-85" value="tu" style="shape=partialRectangle;html=1;whiteSpace=wrap;connectable=0;strokeColor=inherit;overflow=hidden;fillColor=none;top=0;left=0;bottom=0;right=0;pointerEvents=1;fontSize=14;fontFamily=Times New Roman;" vertex="1" parent="YayqZshwJNJJs2qmhWY_-3">
          <mxGeometry x="221" width="63" height="40" as="geometry">
            <mxRectangle width="63" height="40" as="alternateBounds" />
          </mxGeometry>
        </mxCell>
        <mxCell id="YayqZshwJNJJs2qmhWY_-7" value="" style="shape=tableRow;horizontal=0;startSize=0;swimlaneHead=0;swimlaneBody=0;strokeColor=inherit;top=0;left=0;bottom=0;right=0;collapsible=0;dropTarget=0;fillColor=none;points=[[0,0.5],[1,0.5]];portConstraint=eastwest;fontSize=16;" vertex="1" parent="YayqZshwJNJJs2qmhWY_-2">
          <mxGeometry y="40" width="283.54998779296875" height="40" as="geometry" />
        </mxCell>
        <mxCell id="YayqZshwJNJJs2qmhWY_-8" value="2" style="shape=partialRectangle;html=1;whiteSpace=wrap;connectable=0;strokeColor=inherit;overflow=hidden;fillColor=none;top=0;left=0;bottom=0;right=0;pointerEvents=1;fontSize=14;fontFamily=Times New Roman;" vertex="1" parent="YayqZshwJNJJs2qmhWY_-7">
          <mxGeometry width="60" height="40" as="geometry">
            <mxRectangle width="60" height="40" as="alternateBounds" />
          </mxGeometry>
        </mxCell>
        <mxCell id="YayqZshwJNJJs2qmhWY_-9" value="0.81 (=0.9x0.9)" style="shape=partialRectangle;html=1;whiteSpace=wrap;connectable=0;strokeColor=inherit;overflow=hidden;fillColor=none;top=0;left=0;bottom=0;right=0;pointerEvents=1;fontSize=14;fontFamily=Times New Roman;" vertex="1" parent="YayqZshwJNJJs2qmhWY_-7">
          <mxGeometry x="60" width="98" height="40" as="geometry">
            <mxRectangle width="98" height="40" as="alternateBounds" />
          </mxGeometry>
        </mxCell>
        <mxCell id="YayqZshwJNJJs2qmhWY_-10" value="8" style="shape=partialRectangle;html=1;whiteSpace=wrap;connectable=0;strokeColor=inherit;overflow=hidden;fillColor=none;top=0;left=0;bottom=0;right=0;pointerEvents=1;fontSize=14;fontFamily=Times New Roman;" vertex="1" parent="YayqZshwJNJJs2qmhWY_-7">
          <mxGeometry x="158" width="63" height="40" as="geometry">
            <mxRectangle width="63" height="40" as="alternateBounds" />
          </mxGeometry>
        </mxCell>
        <mxCell id="YayqZshwJNJJs2qmhWY_-86" value="20" style="shape=partialRectangle;html=1;whiteSpace=wrap;connectable=0;strokeColor=inherit;overflow=hidden;fillColor=none;top=0;left=0;bottom=0;right=0;pointerEvents=1;fontSize=14;fontFamily=Times New Roman;" vertex="1" parent="YayqZshwJNJJs2qmhWY_-7">
          <mxGeometry x="221" width="63" height="40" as="geometry">
            <mxRectangle width="63" height="40" as="alternateBounds" />
          </mxGeometry>
        </mxCell>
        <mxCell id="YayqZshwJNJJs2qmhWY_-11" value="" style="shape=tableRow;horizontal=0;startSize=0;swimlaneHead=0;swimlaneBody=0;strokeColor=inherit;top=0;left=0;bottom=0;right=0;collapsible=0;dropTarget=0;fillColor=none;points=[[0,0.5],[1,0.5]];portConstraint=eastwest;fontSize=16;" vertex="1" parent="YayqZshwJNJJs2qmhWY_-2">
          <mxGeometry y="80" width="283.54998779296875" height="40" as="geometry" />
        </mxCell>
        <mxCell id="YayqZshwJNJJs2qmhWY_-12" value="5" style="shape=partialRectangle;html=1;whiteSpace=wrap;connectable=0;strokeColor=inherit;overflow=hidden;fillColor=none;top=0;left=0;bottom=0;right=0;pointerEvents=1;fontSize=14;fontFamily=Times New Roman;" vertex="1" parent="YayqZshwJNJJs2qmhWY_-11">
          <mxGeometry width="60" height="40" as="geometry">
            <mxRectangle width="60" height="40" as="alternateBounds" />
          </mxGeometry>
        </mxCell>
        <mxCell id="YayqZshwJNJJs2qmhWY_-13" value="0.2 (=0.4x0.5)" style="shape=partialRectangle;html=1;whiteSpace=wrap;connectable=0;strokeColor=inherit;overflow=hidden;fillColor=none;top=0;left=0;bottom=0;right=0;pointerEvents=1;fontSize=14;fontFamily=Times New Roman;" vertex="1" parent="YayqZshwJNJJs2qmhWY_-11">
          <mxGeometry x="60" width="98" height="40" as="geometry">
            <mxRectangle width="98" height="40" as="alternateBounds" />
          </mxGeometry>
        </mxCell>
        <mxCell id="YayqZshwJNJJs2qmhWY_-14" value="10" style="shape=partialRectangle;html=1;whiteSpace=wrap;connectable=0;strokeColor=inherit;overflow=hidden;fillColor=none;top=0;left=0;bottom=0;right=0;pointerEvents=1;fontSize=14;fontFamily=Times New Roman;" vertex="1" parent="YayqZshwJNJJs2qmhWY_-11">
          <mxGeometry x="158" width="63" height="40" as="geometry">
            <mxRectangle width="63" height="40" as="alternateBounds" />
          </mxGeometry>
        </mxCell>
        <mxCell id="YayqZshwJNJJs2qmhWY_-87" value="23" style="shape=partialRectangle;html=1;whiteSpace=wrap;connectable=0;strokeColor=inherit;overflow=hidden;fillColor=none;top=0;left=0;bottom=0;right=0;pointerEvents=1;fontSize=14;fontFamily=Times New Roman;" vertex="1" parent="YayqZshwJNJJs2qmhWY_-11">
          <mxGeometry x="221" width="63" height="40" as="geometry">
            <mxRectangle width="63" height="40" as="alternateBounds" />
          </mxGeometry>
        </mxCell>
        <mxCell id="YayqZshwJNJJs2qmhWY_-15" value="" style="shape=tableRow;horizontal=0;startSize=0;swimlaneHead=0;swimlaneBody=0;strokeColor=inherit;top=0;left=0;bottom=0;right=0;collapsible=0;dropTarget=0;fillColor=none;points=[[0,0.5],[1,0.5]];portConstraint=eastwest;fontSize=16;" vertex="1" parent="YayqZshwJNJJs2qmhWY_-2">
          <mxGeometry y="120" width="283.54998779296875" height="40" as="geometry" />
        </mxCell>
        <mxCell id="YayqZshwJNJJs2qmhWY_-16" value="7" style="shape=partialRectangle;html=1;whiteSpace=wrap;connectable=0;strokeColor=inherit;overflow=hidden;fillColor=none;top=0;left=0;bottom=0;right=0;pointerEvents=1;fontSize=14;fontFamily=Times New Roman;" vertex="1" parent="YayqZshwJNJJs2qmhWY_-15">
          <mxGeometry width="60" height="40" as="geometry">
            <mxRectangle width="60" height="40" as="alternateBounds" />
          </mxGeometry>
        </mxCell>
        <mxCell id="YayqZshwJNJJs2qmhWY_-17" value="0.63 (=0.9x0.7)" style="shape=partialRectangle;html=1;whiteSpace=wrap;connectable=0;strokeColor=inherit;overflow=hidden;fillColor=none;top=0;left=0;bottom=0;right=0;pointerEvents=1;fontSize=14;fontFamily=Times New Roman;" vertex="1" parent="YayqZshwJNJJs2qmhWY_-15">
          <mxGeometry x="60" width="98" height="40" as="geometry">
            <mxRectangle width="98" height="40" as="alternateBounds" />
          </mxGeometry>
        </mxCell>
        <mxCell id="YayqZshwJNJJs2qmhWY_-18" value="5" style="shape=partialRectangle;html=1;whiteSpace=wrap;connectable=0;strokeColor=inherit;overflow=hidden;fillColor=none;top=0;left=0;bottom=0;right=0;pointerEvents=1;fontSize=14;fontFamily=Times New Roman;" vertex="1" parent="YayqZshwJNJJs2qmhWY_-15">
          <mxGeometry x="158" width="63" height="40" as="geometry">
            <mxRectangle width="63" height="40" as="alternateBounds" />
          </mxGeometry>
        </mxCell>
        <mxCell id="YayqZshwJNJJs2qmhWY_-88" value="5" style="shape=partialRectangle;html=1;whiteSpace=wrap;connectable=0;strokeColor=inherit;overflow=hidden;fillColor=none;top=0;left=0;bottom=0;right=0;pointerEvents=1;fontSize=14;fontFamily=Times New Roman;" vertex="1" parent="YayqZshwJNJJs2qmhWY_-15">
          <mxGeometry x="221" width="63" height="40" as="geometry">
            <mxRectangle width="63" height="40" as="alternateBounds" />
          </mxGeometry>
        </mxCell>
        <mxCell id="YayqZshwJNJJs2qmhWY_-19" value="&lt;font face=&quot;Times New Roman&quot;&gt;Max: 0.81&lt;/font&gt;" style="text;html=1;strokeColor=none;fillColor=none;align=center;verticalAlign=middle;whiteSpace=wrap;rounded=0;" vertex="1" parent="1">
          <mxGeometry x="1053" y="1461" width="60" height="30" as="geometry" />
        </mxCell>
        <mxCell id="YayqZshwJNJJs2qmhWY_-20" value="&lt;font face=&quot;Times New Roman&quot;&gt;Utility: 23&lt;/font&gt;" style="text;html=1;strokeColor=none;fillColor=none;align=center;verticalAlign=middle;whiteSpace=wrap;rounded=0;" vertex="1" parent="1">
          <mxGeometry x="1133" y="1461" width="60" height="30" as="geometry" />
        </mxCell>
        <mxCell id="YayqZshwJNJJs2qmhWY_-21" value="" style="endArrow=none;html=1;rounded=0;entryX=0.5;entryY=1;entryDx=0;entryDy=0;exitX=0.002;exitY=0.03;exitDx=0;exitDy=0;exitPerimeter=0;" edge="1" parent="1" source="YayqZshwJNJJs2qmhWY_-3" target="YayqZshwJNJJs2qmhWY_-1">
          <mxGeometry width="50" height="50" relative="1" as="geometry">
            <mxPoint x="965" y="1481" as="sourcePoint" />
            <mxPoint x="1015" y="1441" as="targetPoint" />
          </mxGeometry>
        </mxCell>
        <mxCell id="YayqZshwJNJJs2qmhWY_-22" value="&lt;font style=&quot;font-size: 14px;&quot;&gt;A: 3.1&amp;nbsp;&lt;/font&gt;" style="rounded=0;whiteSpace=wrap;html=1;fontFamily=Times New Roman;" vertex="1" parent="1">
          <mxGeometry x="709" y="1104" width="70" height="30" as="geometry" />
        </mxCell>
        <mxCell id="YayqZshwJNJJs2qmhWY_-23" value="" style="shape=table;startSize=0;container=1;collapsible=0;childLayout=tableLayout;fontSize=14;fontFamily=Times New Roman;" vertex="1" parent="1">
          <mxGeometry x="763" y="1167" width="240" height="199.7857055664063" as="geometry" />
        </mxCell>
        <mxCell id="YayqZshwJNJJs2qmhWY_-24" value="" style="shape=tableRow;horizontal=0;startSize=0;swimlaneHead=0;swimlaneBody=0;strokeColor=inherit;top=0;left=0;bottom=0;right=0;collapsible=0;dropTarget=0;fillColor=none;points=[[0,0.5],[1,0.5]];portConstraint=eastwest;fontSize=16;" vertex="1" parent="YayqZshwJNJJs2qmhWY_-23">
          <mxGeometry width="240" height="40" as="geometry" />
        </mxCell>
        <mxCell id="YayqZshwJNJJs2qmhWY_-25" value="TID" style="shape=partialRectangle;html=1;whiteSpace=wrap;connectable=0;strokeColor=inherit;overflow=hidden;fillColor=none;top=0;left=0;bottom=0;right=0;pointerEvents=1;fontSize=14;fontFamily=Times New Roman;" vertex="1" parent="YayqZshwJNJJs2qmhWY_-24">
          <mxGeometry width="60" height="40" as="geometry">
            <mxRectangle width="60" height="40" as="alternateBounds" />
          </mxGeometry>
        </mxCell>
        <mxCell id="YayqZshwJNJJs2qmhWY_-26" value="Prob" style="shape=partialRectangle;html=1;whiteSpace=wrap;connectable=0;strokeColor=inherit;overflow=hidden;fillColor=none;top=0;left=0;bottom=0;right=0;pointerEvents=1;fontSize=14;fontFamily=Times New Roman;" vertex="1" parent="YayqZshwJNJJs2qmhWY_-24">
          <mxGeometry x="60" width="60" height="40" as="geometry">
            <mxRectangle width="60" height="40" as="alternateBounds" />
          </mxGeometry>
        </mxCell>
        <mxCell id="YayqZshwJNJJs2qmhWY_-27" value="Uti" style="shape=partialRectangle;html=1;whiteSpace=wrap;connectable=0;strokeColor=inherit;overflow=hidden;fillColor=none;top=0;left=0;bottom=0;right=0;pointerEvents=1;fontSize=14;fontFamily=Times New Roman;" vertex="1" parent="YayqZshwJNJJs2qmhWY_-24">
          <mxGeometry x="120" width="60" height="40" as="geometry">
            <mxRectangle width="60" height="40" as="alternateBounds" />
          </mxGeometry>
        </mxCell>
        <mxCell id="YayqZshwJNJJs2qmhWY_-28" value="tu" style="shape=partialRectangle;html=1;whiteSpace=wrap;connectable=0;strokeColor=inherit;overflow=hidden;fillColor=none;top=0;left=0;bottom=0;right=0;pointerEvents=1;fontSize=14;fontFamily=Times New Roman;" vertex="1" parent="YayqZshwJNJJs2qmhWY_-24">
          <mxGeometry x="180" width="60" height="40" as="geometry">
            <mxRectangle width="60" height="40" as="alternateBounds" />
          </mxGeometry>
        </mxCell>
        <mxCell id="YayqZshwJNJJs2qmhWY_-29" value="" style="shape=tableRow;horizontal=0;startSize=0;swimlaneHead=0;swimlaneBody=0;strokeColor=inherit;top=0;left=0;bottom=0;right=0;collapsible=0;dropTarget=0;fillColor=none;points=[[0,0.5],[1,0.5]];portConstraint=eastwest;fontSize=16;" vertex="1" parent="YayqZshwJNJJs2qmhWY_-23">
          <mxGeometry y="40" width="240" height="40" as="geometry" />
        </mxCell>
        <mxCell id="YayqZshwJNJJs2qmhWY_-30" value="1" style="shape=partialRectangle;html=1;whiteSpace=wrap;connectable=0;strokeColor=inherit;overflow=hidden;fillColor=none;top=0;left=0;bottom=0;right=0;pointerEvents=1;fontSize=14;fontFamily=Times New Roman;" vertex="1" parent="YayqZshwJNJJs2qmhWY_-29">
          <mxGeometry width="60" height="40" as="geometry">
            <mxRectangle width="60" height="40" as="alternateBounds" />
          </mxGeometry>
        </mxCell>
        <mxCell id="YayqZshwJNJJs2qmhWY_-31" value="0.9" style="shape=partialRectangle;html=1;whiteSpace=wrap;connectable=0;strokeColor=inherit;overflow=hidden;fillColor=none;top=0;left=0;bottom=0;right=0;pointerEvents=1;fontSize=14;fontFamily=Times New Roman;" vertex="1" parent="YayqZshwJNJJs2qmhWY_-29">
          <mxGeometry x="60" width="60" height="40" as="geometry">
            <mxRectangle width="60" height="40" as="alternateBounds" />
          </mxGeometry>
        </mxCell>
        <mxCell id="YayqZshwJNJJs2qmhWY_-32" value="3" style="shape=partialRectangle;html=1;whiteSpace=wrap;connectable=0;strokeColor=inherit;overflow=hidden;fillColor=none;top=0;left=0;bottom=0;right=0;pointerEvents=1;fontSize=14;fontFamily=Times New Roman;" vertex="1" parent="YayqZshwJNJJs2qmhWY_-29">
          <mxGeometry x="120" width="60" height="40" as="geometry">
            <mxRectangle width="60" height="40" as="alternateBounds" />
          </mxGeometry>
        </mxCell>
        <mxCell id="YayqZshwJNJJs2qmhWY_-33" value="9" style="shape=partialRectangle;html=1;whiteSpace=wrap;connectable=0;strokeColor=inherit;overflow=hidden;fillColor=none;top=0;left=0;bottom=0;right=0;pointerEvents=1;fontSize=14;fontFamily=Times New Roman;" vertex="1" parent="YayqZshwJNJJs2qmhWY_-29">
          <mxGeometry x="180" width="60" height="40" as="geometry">
            <mxRectangle width="60" height="40" as="alternateBounds" />
          </mxGeometry>
        </mxCell>
        <mxCell id="YayqZshwJNJJs2qmhWY_-34" value="" style="shape=tableRow;horizontal=0;startSize=0;swimlaneHead=0;swimlaneBody=0;strokeColor=inherit;top=0;left=0;bottom=0;right=0;collapsible=0;dropTarget=0;fillColor=none;points=[[0,0.5],[1,0.5]];portConstraint=eastwest;fontSize=16;" vertex="1" parent="YayqZshwJNJJs2qmhWY_-23">
          <mxGeometry y="80" width="240" height="40" as="geometry" />
        </mxCell>
        <mxCell id="YayqZshwJNJJs2qmhWY_-35" value="2" style="shape=partialRectangle;html=1;whiteSpace=wrap;connectable=0;strokeColor=inherit;overflow=hidden;fillColor=none;top=0;left=0;bottom=0;right=0;pointerEvents=1;fontSize=14;fontFamily=Times New Roman;" vertex="1" parent="YayqZshwJNJJs2qmhWY_-34">
          <mxGeometry width="60" height="40" as="geometry">
            <mxRectangle width="60" height="40" as="alternateBounds" />
          </mxGeometry>
        </mxCell>
        <mxCell id="YayqZshwJNJJs2qmhWY_-36" value="0.9" style="shape=partialRectangle;html=1;whiteSpace=wrap;connectable=0;strokeColor=inherit;overflow=hidden;fillColor=none;top=0;left=0;bottom=0;right=0;pointerEvents=1;fontSize=14;fontFamily=Times New Roman;" vertex="1" parent="YayqZshwJNJJs2qmhWY_-34">
          <mxGeometry x="60" width="60" height="40" as="geometry">
            <mxRectangle width="60" height="40" as="alternateBounds" />
          </mxGeometry>
        </mxCell>
        <mxCell id="YayqZshwJNJJs2qmhWY_-37" value="6" style="shape=partialRectangle;html=1;whiteSpace=wrap;connectable=0;strokeColor=inherit;overflow=hidden;fillColor=none;top=0;left=0;bottom=0;right=0;pointerEvents=1;fontSize=14;fontFamily=Times New Roman;" vertex="1" parent="YayqZshwJNJJs2qmhWY_-34">
          <mxGeometry x="120" width="60" height="40" as="geometry">
            <mxRectangle width="60" height="40" as="alternateBounds" />
          </mxGeometry>
        </mxCell>
        <mxCell id="YayqZshwJNJJs2qmhWY_-38" value="20" style="shape=partialRectangle;html=1;whiteSpace=wrap;connectable=0;strokeColor=inherit;overflow=hidden;fillColor=none;top=0;left=0;bottom=0;right=0;pointerEvents=1;fontSize=14;fontFamily=Times New Roman;" vertex="1" parent="YayqZshwJNJJs2qmhWY_-34">
          <mxGeometry x="180" width="60" height="40" as="geometry">
            <mxRectangle width="60" height="40" as="alternateBounds" />
          </mxGeometry>
        </mxCell>
        <mxCell id="YayqZshwJNJJs2qmhWY_-39" value="" style="shape=tableRow;horizontal=0;startSize=0;swimlaneHead=0;swimlaneBody=0;strokeColor=inherit;top=0;left=0;bottom=0;right=0;collapsible=0;dropTarget=0;fillColor=none;points=[[0,0.5],[1,0.5]];portConstraint=eastwest;fontSize=16;" vertex="1" parent="YayqZshwJNJJs2qmhWY_-23">
          <mxGeometry y="120" width="240" height="40" as="geometry" />
        </mxCell>
        <mxCell id="YayqZshwJNJJs2qmhWY_-40" value="5" style="shape=partialRectangle;html=1;whiteSpace=wrap;connectable=0;strokeColor=inherit;overflow=hidden;fillColor=none;top=0;left=0;bottom=0;right=0;pointerEvents=1;fontSize=14;fontFamily=Times New Roman;" vertex="1" parent="YayqZshwJNJJs2qmhWY_-39">
          <mxGeometry width="60" height="40" as="geometry">
            <mxRectangle width="60" height="40" as="alternateBounds" />
          </mxGeometry>
        </mxCell>
        <mxCell id="YayqZshwJNJJs2qmhWY_-41" value="0.4" style="shape=partialRectangle;html=1;whiteSpace=wrap;connectable=0;strokeColor=inherit;overflow=hidden;fillColor=none;top=0;left=0;bottom=0;right=0;pointerEvents=1;fontSize=14;fontFamily=Times New Roman;" vertex="1" parent="YayqZshwJNJJs2qmhWY_-39">
          <mxGeometry x="60" width="60" height="40" as="geometry">
            <mxRectangle width="60" height="40" as="alternateBounds" />
          </mxGeometry>
        </mxCell>
        <mxCell id="YayqZshwJNJJs2qmhWY_-42" value="6" style="shape=partialRectangle;html=1;whiteSpace=wrap;connectable=0;strokeColor=inherit;overflow=hidden;fillColor=none;top=0;left=0;bottom=0;right=0;pointerEvents=1;fontSize=14;fontFamily=Times New Roman;" vertex="1" parent="YayqZshwJNJJs2qmhWY_-39">
          <mxGeometry x="120" width="60" height="40" as="geometry">
            <mxRectangle width="60" height="40" as="alternateBounds" />
          </mxGeometry>
        </mxCell>
        <mxCell id="YayqZshwJNJJs2qmhWY_-43" value="23" style="shape=partialRectangle;html=1;whiteSpace=wrap;connectable=0;strokeColor=inherit;overflow=hidden;fillColor=none;top=0;left=0;bottom=0;right=0;pointerEvents=1;fontSize=14;fontFamily=Times New Roman;" vertex="1" parent="YayqZshwJNJJs2qmhWY_-39">
          <mxGeometry x="180" width="60" height="40" as="geometry">
            <mxRectangle width="60" height="40" as="alternateBounds" />
          </mxGeometry>
        </mxCell>
        <mxCell id="YayqZshwJNJJs2qmhWY_-44" value="" style="shape=tableRow;horizontal=0;startSize=0;swimlaneHead=0;swimlaneBody=0;strokeColor=inherit;top=0;left=0;bottom=0;right=0;collapsible=0;dropTarget=0;fillColor=none;points=[[0,0.5],[1,0.5]];portConstraint=eastwest;fontSize=16;" vertex="1" parent="YayqZshwJNJJs2qmhWY_-23">
          <mxGeometry y="160" width="240" height="40" as="geometry" />
        </mxCell>
        <mxCell id="YayqZshwJNJJs2qmhWY_-45" value="7" style="shape=partialRectangle;html=1;whiteSpace=wrap;connectable=0;strokeColor=inherit;overflow=hidden;fillColor=none;top=0;left=0;bottom=0;right=0;pointerEvents=1;fontSize=14;fontFamily=Times New Roman;" vertex="1" parent="YayqZshwJNJJs2qmhWY_-44">
          <mxGeometry width="60" height="40" as="geometry">
            <mxRectangle width="60" height="40" as="alternateBounds" />
          </mxGeometry>
        </mxCell>
        <mxCell id="YayqZshwJNJJs2qmhWY_-46" value="0.9" style="shape=partialRectangle;html=1;whiteSpace=wrap;connectable=0;strokeColor=inherit;overflow=hidden;fillColor=none;top=0;left=0;bottom=0;right=0;pointerEvents=1;fontSize=14;fontFamily=Times New Roman;" vertex="1" parent="YayqZshwJNJJs2qmhWY_-44">
          <mxGeometry x="60" width="60" height="40" as="geometry">
            <mxRectangle width="60" height="40" as="alternateBounds" />
          </mxGeometry>
        </mxCell>
        <mxCell id="YayqZshwJNJJs2qmhWY_-47" value="3" style="shape=partialRectangle;html=1;whiteSpace=wrap;connectable=0;strokeColor=inherit;overflow=hidden;fillColor=none;top=0;left=0;bottom=0;right=0;pointerEvents=1;fontSize=14;fontFamily=Times New Roman;" vertex="1" parent="YayqZshwJNJJs2qmhWY_-44">
          <mxGeometry x="120" width="60" height="40" as="geometry">
            <mxRectangle width="60" height="40" as="alternateBounds" />
          </mxGeometry>
        </mxCell>
        <mxCell id="YayqZshwJNJJs2qmhWY_-48" value="5" style="shape=partialRectangle;html=1;whiteSpace=wrap;connectable=0;strokeColor=inherit;overflow=hidden;fillColor=none;top=0;left=0;bottom=0;right=0;pointerEvents=1;fontSize=14;fontFamily=Times New Roman;" vertex="1" parent="YayqZshwJNJJs2qmhWY_-44">
          <mxGeometry x="180" width="60" height="40" as="geometry">
            <mxRectangle width="60" height="40" as="alternateBounds" />
          </mxGeometry>
        </mxCell>
        <mxCell id="YayqZshwJNJJs2qmhWY_-49" value="" style="whiteSpace=wrap;html=1;fontSize=16;startSize=0;" vertex="1" parent="YayqZshwJNJJs2qmhWY_-44">
          <mxGeometry x="240" width="NaN" height="40" as="geometry">
            <mxRectangle width="NaN" height="40" as="alternateBounds" />
          </mxGeometry>
        </mxCell>
        <mxCell id="YayqZshwJNJJs2qmhWY_-50" value="&lt;font face=&quot;Times New Roman&quot;&gt;Max: 0.9&lt;/font&gt;" style="text;html=1;strokeColor=none;fillColor=none;align=center;verticalAlign=middle;whiteSpace=wrap;rounded=0;" vertex="1" parent="1">
          <mxGeometry x="822" y="1137" width="60" height="30" as="geometry" />
        </mxCell>
        <mxCell id="YayqZshwJNJJs2qmhWY_-51" value="&lt;font face=&quot;Times New Roman&quot;&gt;Utility: 18&lt;/font&gt;" style="text;html=1;strokeColor=none;fillColor=none;align=center;verticalAlign=middle;whiteSpace=wrap;rounded=0;" vertex="1" parent="1">
          <mxGeometry x="882" y="1137" width="60" height="30" as="geometry" />
        </mxCell>
        <mxCell id="YayqZshwJNJJs2qmhWY_-52" value="" style="endArrow=none;html=1;rounded=0;entryX=0.5;entryY=1;entryDx=0;entryDy=0;exitX=0;exitY=0.5;exitDx=0;exitDy=0;" edge="1" parent="1" source="YayqZshwJNJJs2qmhWY_-24" target="YayqZshwJNJJs2qmhWY_-22">
          <mxGeometry width="50" height="50" relative="1" as="geometry">
            <mxPoint x="729" y="1164" as="sourcePoint" />
            <mxPoint x="801" y="1112" as="targetPoint" />
          </mxGeometry>
        </mxCell>
        <mxCell id="YayqZshwJNJJs2qmhWY_-53" value="&lt;font style=&quot;font-size: 14px;&quot;&gt;B: 2.6&amp;nbsp;&lt;/font&gt;" style="rounded=0;whiteSpace=wrap;html=1;fontFamily=Times New Roman;" vertex="1" parent="1">
          <mxGeometry x="1092" y="1103" width="70" height="30" as="geometry" />
        </mxCell>
        <mxCell id="YayqZshwJNJJs2qmhWY_-54" value="" style="shape=table;startSize=0;container=1;collapsible=0;childLayout=tableLayout;fontSize=14;fontFamily=Times New Roman;" vertex="1" parent="1">
          <mxGeometry x="1146" y="1163" width="240" height="200" as="geometry" />
        </mxCell>
        <mxCell id="YayqZshwJNJJs2qmhWY_-55" value="" style="shape=tableRow;horizontal=0;startSize=0;swimlaneHead=0;swimlaneBody=0;strokeColor=inherit;top=0;left=0;bottom=0;right=0;collapsible=0;dropTarget=0;fillColor=none;points=[[0,0.5],[1,0.5]];portConstraint=eastwest;fontSize=16;" vertex="1" parent="YayqZshwJNJJs2qmhWY_-54">
          <mxGeometry width="240" height="40" as="geometry" />
        </mxCell>
        <mxCell id="YayqZshwJNJJs2qmhWY_-56" value="TID" style="shape=partialRectangle;html=1;whiteSpace=wrap;connectable=0;strokeColor=inherit;overflow=hidden;fillColor=none;top=0;left=0;bottom=0;right=0;pointerEvents=1;fontSize=14;fontFamily=Times New Roman;" vertex="1" parent="YayqZshwJNJJs2qmhWY_-55">
          <mxGeometry width="60" height="40" as="geometry">
            <mxRectangle width="60" height="40" as="alternateBounds" />
          </mxGeometry>
        </mxCell>
        <mxCell id="YayqZshwJNJJs2qmhWY_-57" value="Prob" style="shape=partialRectangle;html=1;whiteSpace=wrap;connectable=0;strokeColor=inherit;overflow=hidden;fillColor=none;top=0;left=0;bottom=0;right=0;pointerEvents=1;fontSize=14;fontFamily=Times New Roman;" vertex="1" parent="YayqZshwJNJJs2qmhWY_-55">
          <mxGeometry x="60" width="60" height="40" as="geometry">
            <mxRectangle width="60" height="40" as="alternateBounds" />
          </mxGeometry>
        </mxCell>
        <mxCell id="YayqZshwJNJJs2qmhWY_-58" value="Uti" style="shape=partialRectangle;html=1;whiteSpace=wrap;connectable=0;strokeColor=inherit;overflow=hidden;fillColor=none;top=0;left=0;bottom=0;right=0;pointerEvents=1;fontSize=14;fontFamily=Times New Roman;" vertex="1" parent="YayqZshwJNJJs2qmhWY_-55">
          <mxGeometry x="120" width="60" height="40" as="geometry">
            <mxRectangle width="60" height="40" as="alternateBounds" />
          </mxGeometry>
        </mxCell>
        <mxCell id="YayqZshwJNJJs2qmhWY_-59" value="tu" style="shape=partialRectangle;html=1;whiteSpace=wrap;connectable=0;strokeColor=inherit;overflow=hidden;fillColor=none;top=0;left=0;bottom=0;right=0;pointerEvents=1;fontSize=14;fontFamily=Times New Roman;" vertex="1" parent="YayqZshwJNJJs2qmhWY_-55">
          <mxGeometry x="180" width="60" height="40" as="geometry">
            <mxRectangle width="60" height="40" as="alternateBounds" />
          </mxGeometry>
        </mxCell>
        <mxCell id="YayqZshwJNJJs2qmhWY_-60" value="" style="shape=tableRow;horizontal=0;startSize=0;swimlaneHead=0;swimlaneBody=0;strokeColor=inherit;top=0;left=0;bottom=0;right=0;collapsible=0;dropTarget=0;fillColor=none;points=[[0,0.5],[1,0.5]];portConstraint=eastwest;fontSize=16;" vertex="1" parent="YayqZshwJNJJs2qmhWY_-54">
          <mxGeometry y="40" width="240" height="40" as="geometry" />
        </mxCell>
        <mxCell id="YayqZshwJNJJs2qmhWY_-61" value="2" style="shape=partialRectangle;html=1;whiteSpace=wrap;connectable=0;strokeColor=inherit;overflow=hidden;fillColor=none;top=0;left=0;bottom=0;right=0;pointerEvents=1;fontSize=14;fontFamily=Times New Roman;" vertex="1" parent="YayqZshwJNJJs2qmhWY_-60">
          <mxGeometry width="60" height="40" as="geometry">
            <mxRectangle width="60" height="40" as="alternateBounds" />
          </mxGeometry>
        </mxCell>
        <mxCell id="YayqZshwJNJJs2qmhWY_-62" value="0.9" style="shape=partialRectangle;html=1;whiteSpace=wrap;connectable=0;strokeColor=inherit;overflow=hidden;fillColor=none;top=0;left=0;bottom=0;right=0;pointerEvents=1;fontSize=14;fontFamily=Times New Roman;" vertex="1" parent="YayqZshwJNJJs2qmhWY_-60">
          <mxGeometry x="60" width="60" height="40" as="geometry">
            <mxRectangle width="60" height="40" as="alternateBounds" />
          </mxGeometry>
        </mxCell>
        <mxCell id="YayqZshwJNJJs2qmhWY_-63" value="2" style="shape=partialRectangle;html=1;whiteSpace=wrap;connectable=0;strokeColor=inherit;overflow=hidden;fillColor=none;top=0;left=0;bottom=0;right=0;pointerEvents=1;fontSize=14;fontFamily=Times New Roman;" vertex="1" parent="YayqZshwJNJJs2qmhWY_-60">
          <mxGeometry x="120" width="60" height="40" as="geometry">
            <mxRectangle width="60" height="40" as="alternateBounds" />
          </mxGeometry>
        </mxCell>
        <mxCell id="YayqZshwJNJJs2qmhWY_-64" value="20" style="shape=partialRectangle;html=1;whiteSpace=wrap;connectable=0;strokeColor=inherit;overflow=hidden;fillColor=none;top=0;left=0;bottom=0;right=0;pointerEvents=1;fontSize=14;fontFamily=Times New Roman;" vertex="1" parent="YayqZshwJNJJs2qmhWY_-60">
          <mxGeometry x="180" width="60" height="40" as="geometry">
            <mxRectangle width="60" height="40" as="alternateBounds" />
          </mxGeometry>
        </mxCell>
        <mxCell id="YayqZshwJNJJs2qmhWY_-65" value="" style="shape=tableRow;horizontal=0;startSize=0;swimlaneHead=0;swimlaneBody=0;strokeColor=inherit;top=0;left=0;bottom=0;right=0;collapsible=0;dropTarget=0;fillColor=none;points=[[0,0.5],[1,0.5]];portConstraint=eastwest;fontSize=16;" vertex="1" parent="YayqZshwJNJJs2qmhWY_-54">
          <mxGeometry y="80" width="240" height="40" as="geometry" />
        </mxCell>
        <mxCell id="YayqZshwJNJJs2qmhWY_-66" value="3" style="shape=partialRectangle;html=1;whiteSpace=wrap;connectable=0;strokeColor=inherit;overflow=hidden;fillColor=none;top=0;left=0;bottom=0;right=0;pointerEvents=1;fontSize=14;fontFamily=Times New Roman;" vertex="1" parent="YayqZshwJNJJs2qmhWY_-65">
          <mxGeometry width="60" height="40" as="geometry">
            <mxRectangle width="60" height="40" as="alternateBounds" />
          </mxGeometry>
        </mxCell>
        <mxCell id="YayqZshwJNJJs2qmhWY_-67" value="0.5" style="shape=partialRectangle;html=1;whiteSpace=wrap;connectable=0;strokeColor=inherit;overflow=hidden;fillColor=none;top=0;left=0;bottom=0;right=0;pointerEvents=1;fontSize=14;fontFamily=Times New Roman;" vertex="1" parent="YayqZshwJNJJs2qmhWY_-65">
          <mxGeometry x="60" width="60" height="40" as="geometry">
            <mxRectangle width="60" height="40" as="alternateBounds" />
          </mxGeometry>
        </mxCell>
        <mxCell id="YayqZshwJNJJs2qmhWY_-68" value="2" style="shape=partialRectangle;html=1;whiteSpace=wrap;connectable=0;strokeColor=inherit;overflow=hidden;fillColor=none;top=0;left=0;bottom=0;right=0;pointerEvents=1;fontSize=14;fontFamily=Times New Roman;" vertex="1" parent="YayqZshwJNJJs2qmhWY_-65">
          <mxGeometry x="120" width="60" height="40" as="geometry">
            <mxRectangle width="60" height="40" as="alternateBounds" />
          </mxGeometry>
        </mxCell>
        <mxCell id="YayqZshwJNJJs2qmhWY_-69" value="17" style="shape=partialRectangle;html=1;whiteSpace=wrap;connectable=0;strokeColor=inherit;overflow=hidden;fillColor=none;top=0;left=0;bottom=0;right=0;pointerEvents=1;fontSize=14;fontFamily=Times New Roman;" vertex="1" parent="YayqZshwJNJJs2qmhWY_-65">
          <mxGeometry x="180" width="60" height="40" as="geometry">
            <mxRectangle width="60" height="40" as="alternateBounds" />
          </mxGeometry>
        </mxCell>
        <mxCell id="YayqZshwJNJJs2qmhWY_-70" value="" style="shape=tableRow;horizontal=0;startSize=0;swimlaneHead=0;swimlaneBody=0;strokeColor=inherit;top=0;left=0;bottom=0;right=0;collapsible=0;dropTarget=0;fillColor=none;points=[[0,0.5],[1,0.5]];portConstraint=eastwest;fontSize=16;" vertex="1" parent="YayqZshwJNJJs2qmhWY_-54">
          <mxGeometry y="120" width="240" height="40" as="geometry" />
        </mxCell>
        <mxCell id="YayqZshwJNJJs2qmhWY_-71" value="5" style="shape=partialRectangle;html=1;whiteSpace=wrap;connectable=0;strokeColor=inherit;overflow=hidden;fillColor=none;top=0;left=0;bottom=0;right=0;pointerEvents=1;fontSize=14;fontFamily=Times New Roman;" vertex="1" parent="YayqZshwJNJJs2qmhWY_-70">
          <mxGeometry width="60" height="40" as="geometry">
            <mxRectangle width="60" height="40" as="alternateBounds" />
          </mxGeometry>
        </mxCell>
        <mxCell id="YayqZshwJNJJs2qmhWY_-72" value="0.5" style="shape=partialRectangle;html=1;whiteSpace=wrap;connectable=0;strokeColor=inherit;overflow=hidden;fillColor=none;top=0;left=0;bottom=0;right=0;pointerEvents=1;fontSize=14;fontFamily=Times New Roman;" vertex="1" parent="YayqZshwJNJJs2qmhWY_-70">
          <mxGeometry x="60" width="60" height="40" as="geometry">
            <mxRectangle width="60" height="40" as="alternateBounds" />
          </mxGeometry>
        </mxCell>
        <mxCell id="YayqZshwJNJJs2qmhWY_-73" value="4" style="shape=partialRectangle;html=1;whiteSpace=wrap;connectable=0;strokeColor=inherit;overflow=hidden;fillColor=none;top=0;left=0;bottom=0;right=0;pointerEvents=1;fontSize=14;fontFamily=Times New Roman;" vertex="1" parent="YayqZshwJNJJs2qmhWY_-70">
          <mxGeometry x="120" width="60" height="40" as="geometry">
            <mxRectangle width="60" height="40" as="alternateBounds" />
          </mxGeometry>
        </mxCell>
        <mxCell id="YayqZshwJNJJs2qmhWY_-74" value="23" style="shape=partialRectangle;html=1;whiteSpace=wrap;connectable=0;strokeColor=inherit;overflow=hidden;fillColor=none;top=0;left=0;bottom=0;right=0;pointerEvents=1;fontSize=14;fontFamily=Times New Roman;" vertex="1" parent="YayqZshwJNJJs2qmhWY_-70">
          <mxGeometry x="180" width="60" height="40" as="geometry">
            <mxRectangle width="60" height="40" as="alternateBounds" />
          </mxGeometry>
        </mxCell>
        <mxCell id="YayqZshwJNJJs2qmhWY_-75" value="" style="shape=tableRow;horizontal=0;startSize=0;swimlaneHead=0;swimlaneBody=0;strokeColor=inherit;top=0;left=0;bottom=0;right=0;collapsible=0;dropTarget=0;fillColor=none;points=[[0,0.5],[1,0.5]];portConstraint=eastwest;fontSize=16;" vertex="1" parent="YayqZshwJNJJs2qmhWY_-54">
          <mxGeometry y="160" width="240" height="40" as="geometry" />
        </mxCell>
        <mxCell id="YayqZshwJNJJs2qmhWY_-76" value="7" style="shape=partialRectangle;html=1;whiteSpace=wrap;connectable=0;strokeColor=inherit;overflow=hidden;fillColor=none;top=0;left=0;bottom=0;right=0;pointerEvents=1;fontSize=14;fontFamily=Times New Roman;" vertex="1" parent="YayqZshwJNJJs2qmhWY_-75">
          <mxGeometry width="60" height="40" as="geometry">
            <mxRectangle width="60" height="40" as="alternateBounds" />
          </mxGeometry>
        </mxCell>
        <mxCell id="YayqZshwJNJJs2qmhWY_-77" value="0.7" style="shape=partialRectangle;html=1;whiteSpace=wrap;connectable=0;strokeColor=inherit;overflow=hidden;fillColor=none;top=0;left=0;bottom=0;right=0;pointerEvents=1;fontSize=14;fontFamily=Times New Roman;" vertex="1" parent="YayqZshwJNJJs2qmhWY_-75">
          <mxGeometry x="60" width="60" height="40" as="geometry">
            <mxRectangle width="60" height="40" as="alternateBounds" />
          </mxGeometry>
        </mxCell>
        <mxCell id="YayqZshwJNJJs2qmhWY_-78" value="2" style="shape=partialRectangle;html=1;whiteSpace=wrap;connectable=0;strokeColor=inherit;overflow=hidden;fillColor=none;top=0;left=0;bottom=0;right=0;pointerEvents=1;fontSize=14;fontFamily=Times New Roman;" vertex="1" parent="YayqZshwJNJJs2qmhWY_-75">
          <mxGeometry x="120" width="60" height="40" as="geometry">
            <mxRectangle width="60" height="40" as="alternateBounds" />
          </mxGeometry>
        </mxCell>
        <mxCell id="YayqZshwJNJJs2qmhWY_-79" value="5" style="shape=partialRectangle;html=1;whiteSpace=wrap;connectable=0;strokeColor=inherit;overflow=hidden;fillColor=none;top=0;left=0;bottom=0;right=0;pointerEvents=1;fontSize=14;fontFamily=Times New Roman;" vertex="1" parent="YayqZshwJNJJs2qmhWY_-75">
          <mxGeometry x="180" width="60" height="40" as="geometry">
            <mxRectangle width="60" height="40" as="alternateBounds" />
          </mxGeometry>
        </mxCell>
        <mxCell id="YayqZshwJNJJs2qmhWY_-80" value="&lt;font face=&quot;Times New Roman&quot;&gt;Max: 0.9&lt;/font&gt;" style="text;html=1;strokeColor=none;fillColor=none;align=center;verticalAlign=middle;whiteSpace=wrap;rounded=0;" vertex="1" parent="1">
          <mxGeometry x="1206" y="1133" width="60" height="30" as="geometry" />
        </mxCell>
        <mxCell id="YayqZshwJNJJs2qmhWY_-81" value="&lt;font face=&quot;Times New Roman&quot;&gt;Utility: 10&lt;br&gt;&lt;/font&gt;" style="text;html=1;strokeColor=none;fillColor=none;align=center;verticalAlign=middle;whiteSpace=wrap;rounded=0;" vertex="1" parent="1">
          <mxGeometry x="1266" y="1133" width="60" height="30" as="geometry" />
        </mxCell>
        <mxCell id="YayqZshwJNJJs2qmhWY_-82" value="" style="endArrow=none;html=1;rounded=0;entryX=0.5;entryY=1;entryDx=0;entryDy=0;exitX=0.002;exitY=0.03;exitDx=0;exitDy=0;exitPerimeter=0;" edge="1" parent="1" source="YayqZshwJNJJs2qmhWY_-55" target="YayqZshwJNJJs2qmhWY_-53">
          <mxGeometry width="50" height="50" relative="1" as="geometry">
            <mxPoint x="1136" y="1153" as="sourcePoint" />
            <mxPoint x="1186" y="1113" as="targetPoint" />
          </mxGeometry>
        </mxCell>
        <mxCell id="YayqZshwJNJJs2qmhWY_-83" value="&lt;font face=&quot;Times New Roman&quot;&gt;twu: 57&lt;/font&gt;" style="text;html=1;strokeColor=none;fillColor=none;align=center;verticalAlign=middle;whiteSpace=wrap;rounded=0;" vertex="1" parent="1">
          <mxGeometry x="942" y="1137" width="60" height="30" as="geometry" />
        </mxCell>
        <mxCell id="YayqZshwJNJJs2qmhWY_-84" value="&lt;font face=&quot;Times New Roman&quot;&gt;twu: 65&lt;/font&gt;" style="text;html=1;strokeColor=none;fillColor=none;align=center;verticalAlign=middle;whiteSpace=wrap;rounded=0;" vertex="1" parent="1">
          <mxGeometry x="1327" y="1134" width="60" height="30" as="geometry" />
        </mxCell>
        <mxCell id="YayqZshwJNJJs2qmhWY_-89" value="&lt;font face=&quot;Times New Roman&quot;&gt;twu: 48&lt;/font&gt;" style="text;html=1;strokeColor=none;fillColor=none;align=center;verticalAlign=middle;whiteSpace=wrap;rounded=0;" vertex="1" parent="1">
          <mxGeometry x="1198.55" y="1461" width="60" height="30" as="geometry" />
        </mxCell>
      </root>
    </mxGraphModel>
  </diagram>
</mxfile>
